# xmcd
#
# Track frame offsets: 
#        150
#        20124
#        42318
#        64516
#        87963
#        107385
#        127712
#        152592
#        178322
#        202156
#        228578
#
# Disc length: 3269 seconds
#
# Revision: 7
# Processed by: cddbd v1.5.2PL0 Copyright (c) Steve Scherf et al.
# Submitted via: ExactAudioCopy v0.99pb4
#
DISCID=8d0cc30b
DTITLE=Soul Ballet - Vibe Cinema
DYEAR=2000
DGENRE=Rhythmic Soul
TTITLE0=Boom Boom Room
TTITLE1=Strawberry Girl
TTITLE2=One Day In My Life...
TTITLE3=Vibe Cinema
TTITLE4=Jaguar Drum Bar
TTITLE5=Touch Push Kiss Lie
TTITLE6=Choose Me
TTITLE7=Are You At The Party?
TTITLE8=She Feels It
TTITLE9=Love Is The Thing
TTITLE10=Black Sun (bonus) (remix)
EXTD=YEAR: 2000
EXTT0=
EXTT1=
EXTT2=
EXTT3=
EXTT4=
EXTT5=
EXTT6=
EXTT7=
EXTT8=
EXTT9=
EXTT10=
PLAYORDER=
